<svg width="251" height="250" viewBox="0 0 251 250" fill="none" xmlns="http://www.w3.org/2000/svg">
<path d="M125.593 147.266C137.89 147.266 147.858 137.297 147.858 125C147.858 112.703 137.89 102.734 125.593 102.734C113.296 102.734 103.327 112.703 103.327 125C103.327 137.297 113.296 147.266 125.593 147.266Z" fill="#61DAFB"/>
<path d="M210.163 88.2812C205.866 86.7187 201.374 85.1563 196.687 83.7891C197.858 79.1016 198.835 74.4141 199.616 69.9219C203.718 44.1406 199.226 25.9766 186.726 18.9453C183.015 16.7969 178.913 15.8203 174.226 15.8203C160.554 15.8203 143.171 25.9766 125.593 42.9687C108.015 25.9766 90.6318 15.8203 76.96 15.8203C72.2725 15.8203 68.1709 16.7969 64.46 18.9453C51.96 26.1719 47.4678 44.3359 51.5693 69.9219C52.3506 74.4141 53.3271 79.1016 54.499 83.7891C49.8115 85.1563 45.3193 86.5234 41.0225 88.2812C16.6084 97.6562 3.32715 110.547 3.32715 125C3.32715 139.453 16.8037 152.344 41.0225 161.719C45.3193 163.281 49.8115 164.844 54.499 166.211C53.3271 170.898 52.3506 175.586 51.5693 180.078C47.4678 205.859 51.96 224.023 64.46 231.055C68.1709 233.203 72.2725 234.18 76.96 234.18C90.8271 234.18 108.21 224.023 125.593 207.031C143.171 224.023 160.554 234.18 174.226 234.18C178.913 234.18 183.015 233.203 186.726 231.055C199.226 223.828 203.718 205.664 199.616 180.078C198.835 175.586 197.858 170.898 196.687 166.211C201.374 164.844 205.866 163.477 210.163 161.719C234.577 152.344 247.858 139.453 247.858 125C247.858 110.547 234.577 97.6562 210.163 88.2812ZM181.257 28.7109C189.265 33.3984 191.999 47.8516 188.679 68.3594C188.093 72.4609 187.116 76.7578 185.944 81.25C175.788 78.9062 165.046 77.3437 153.718 76.3672C147.077 66.9922 140.241 58.5938 133.405 50.9766C147.858 36.7187 162.507 26.9531 174.421 26.9531C176.96 26.9531 179.304 27.5391 181.257 28.7109ZM159.382 144.531C155.866 150.781 151.765 157.031 147.468 163.281C140.241 163.867 133.015 164.063 125.593 164.063C117.976 164.063 110.749 163.867 103.718 163.281C99.4209 157.031 95.5146 150.781 91.999 144.531C88.2881 138.086 84.7725 131.445 81.6475 125C84.7725 118.555 88.2881 111.914 91.999 105.469C95.5146 99.2188 99.6162 92.9688 103.913 86.7188C111.14 86.1328 118.366 85.9375 125.788 85.9375C133.405 85.9375 140.632 86.1328 147.663 86.7188C151.96 92.9688 155.866 99.2188 159.382 105.469C163.093 111.914 166.608 118.555 169.733 125C166.413 131.445 163.093 137.891 159.382 144.531ZM175.593 138.086C178.522 144.922 180.866 151.563 183.015 158.203C176.374 159.766 169.343 160.938 161.921 161.914C164.265 158.203 166.804 154.297 168.952 150.195C171.296 146.094 173.444 141.992 175.593 138.086ZM125.593 191.016C120.905 185.938 116.413 180.469 112.116 174.805C116.608 175 121.101 175.195 125.593 175.195C130.085 175.195 134.577 175 139.069 174.805C134.772 180.469 130.28 185.938 125.593 191.016ZM89.2646 161.719C81.8428 160.742 74.8115 159.57 68.1709 158.008C70.3193 151.563 72.6631 144.727 75.5928 137.891C77.7412 141.797 79.8896 145.898 82.2334 149.805C84.5771 154.102 86.9209 157.813 89.2646 161.719ZM75.5928 111.914C72.6631 105.078 70.3193 98.4375 68.1709 91.7969C74.8115 90.2344 81.8428 89.0625 89.2646 88.0859C86.9209 91.7969 84.3818 95.7031 82.2334 99.8047C79.8896 103.906 77.7412 108.008 75.5928 111.914ZM125.593 58.9844C130.28 64.0625 134.772 69.5312 139.069 75.1953C134.577 75 130.085 74.8047 125.593 74.8047C121.101 74.8047 116.608 75 112.116 75.1953C116.413 69.5312 120.905 64.0625 125.593 58.9844ZM168.952 100L161.921 88.2812C169.343 89.2578 176.374 90.4297 183.015 91.9922C180.866 98.4375 178.522 105.273 175.593 112.109C173.444 108.008 171.296 103.906 168.952 100ZM62.5068 68.3594C59.1865 47.8516 61.9209 33.3984 69.9287 28.7109C71.8818 27.5391 74.2256 26.9531 76.7646 26.9531C88.4834 26.9531 103.132 36.5234 117.78 50.9766C110.944 58.3984 104.108 66.9922 97.4678 76.3672C86.1396 77.3437 75.3975 79.1016 65.2412 81.25C64.0693 76.7578 63.2881 72.4609 62.5068 68.3594ZM14.2646 125C14.2646 115.82 25.3975 106.055 44.9287 98.8281C48.835 97.2656 53.1318 95.8984 57.4287 94.7266C60.5537 104.492 64.46 114.844 69.1475 125.195C64.46 135.547 60.3584 145.703 57.4287 155.469C30.4756 147.656 14.2646 135.938 14.2646 125ZM69.9287 221.289C61.9209 216.602 59.1865 202.148 62.5068 181.641C63.0928 177.539 64.0693 173.242 65.2412 168.75C75.3975 171.094 86.1396 172.656 97.4678 173.633C104.108 183.008 110.944 191.406 117.78 199.023C103.327 213.281 88.6787 223.047 76.7646 223.047C74.2256 223.047 71.8818 222.461 69.9287 221.289ZM188.679 181.641C191.999 202.148 189.265 216.602 181.257 221.289C179.304 222.461 176.96 223.047 174.421 223.047C162.702 223.047 148.054 213.477 133.405 199.023C140.241 191.602 147.077 183.008 153.718 173.633C165.046 172.656 175.788 170.898 185.944 168.75C187.116 173.242 187.897 177.539 188.679 181.641ZM206.257 151.172C202.351 152.734 198.054 154.102 193.757 155.273C190.632 145.508 186.726 135.156 182.038 124.805C186.726 114.453 190.827 104.297 193.757 94.5313C220.71 102.344 236.921 114.063 236.921 125C236.921 134.18 225.593 143.945 206.257 151.172Z" fill="#61DAFB"/>
</svg>
