<svg width="251" height="250" viewBox="0 0 251 250" fill="none" xmlns="http://www.w3.org/2000/svg">
<path d="M125.222 2.00391L9.48535 42.7344L27.7725 194.369L125.345 247.996L223.419 193.645L241.7 42.0137L125.222 2.00391Z" fill="#B3B3B3"/>
<path d="M230.155 50.7773L124.952 14.9004V235.184L213.118 186.389L230.155 50.7773Z" fill="#A6120D"/>
<path d="M22.4697 51.4238L38.1455 187.037L124.95 235.184V14.8965L22.4697 51.4238Z" fill="#DD1B16"/>
<path d="M153.911 132.168L124.952 145.711H94.4287L80.0791 181.598L53.3936 182.094L124.952 22.8984L153.911 132.168ZM151.11 125.35L125.144 73.9414L103.843 124.465H124.95L151.11 125.35Z" fill="#F2F2F2"/>
<path d="M124.95 22.8984L125.142 73.9414L149.312 124.504H125.003L124.95 145.678L158.562 145.711L174.269 182.098L199.804 182.57L124.95 22.8984Z" fill="#B3B3B3"/>
</svg>
