<svg width="251" height="250" viewBox="0 0 251 250" fill="none" xmlns="http://www.w3.org/2000/svg">
<g clip-path="url(#clip0_32_101)">
<path d="M121.134 -0.000151892C119.301 -0.000151892 117.905 0.0102648 117.405 0.0727648C116.142 0.199035 114.878 0.313623 113.613 0.416515C78.1239 3.60401 44.8634 22.7603 23.8009 52.2082C12.1527 68.37 4.58039 87.1061 1.72803 106.823C0.728027 113.687 0.603027 115.719 0.603027 125.021C0.603027 134.323 0.728027 136.364 1.72803 143.229C8.51969 190.167 41.9364 229.604 87.2384 244.219C95.353 246.823 103.905 248.614 113.634 249.687C117.416 250.104 133.791 250.104 137.582 249.687C154.363 247.833 168.593 243.677 182.613 236.521C184.77 235.417 185.186 235.125 184.895 234.875C184.686 234.739 175.52 222.448 164.53 207.583L144.541 180.583L119.499 143.521C111.168 131.12 102.758 118.773 94.2697 106.479C94.1759 106.458 94.0822 122.927 94.0301 143.042C93.9572 178.25 93.9259 179.656 93.4884 180.489C93.0638 181.466 92.3022 182.257 91.3426 182.719C90.5614 183.104 89.8843 183.177 86.1864 183.177H81.9468L80.8218 182.469C80.1264 182.033 79.5614 181.417 79.1864 180.687L78.6655 179.583L78.728 130.594L78.8009 81.5832L79.5509 80.6248C80.0631 80.0259 80.6766 79.5217 81.3634 79.1353C82.3634 78.6457 82.7593 78.604 86.9884 78.604C91.9676 78.604 92.8009 78.7915 94.0926 80.2082C104.23 95.2941 114.282 110.437 124.249 125.635C140.68 150.538 157.121 175.434 173.572 200.323L193.363 230.312L194.363 229.656C203.892 223.325 212.531 215.747 220.051 207.125C235.799 189.099 246.012 166.914 249.468 143.229C250.468 136.354 250.593 134.333 250.593 125.021C250.593 115.719 250.468 113.687 249.468 106.823C242.676 59.8853 209.27 20.4478 163.968 5.83318C155.497 3.1403 146.776 1.31495 137.936 0.385265C132.343 0.120539 126.744 -0.00797148 121.145 -0.000151892H121.134ZM163.52 75.1769C167.134 75.1769 167.77 75.229 168.582 75.6665C169.164 75.9603 169.682 76.3665 170.106 76.8618C170.53 77.3571 170.851 77.9316 171.051 78.5519C171.238 79.1769 171.291 92.7707 171.238 123.385L171.176 167.323L163.426 155.448L155.655 143.573V111.635C155.655 90.9894 155.759 79.3749 155.895 78.8228C156.069 78.1712 156.374 77.562 156.792 77.0319C157.209 76.5019 157.729 76.0622 158.322 75.7394C159.322 75.2186 159.676 75.1769 163.53 75.1769H163.52Z" fill="black"/>
</g>
<defs>
<clipPath id="clip0_32_101">
<rect width="250" height="250" fill="white" transform="translate(0.592773)"/>
</clipPath>
</defs>
</svg>
