<svg width="417" height="250" viewBox="0 0 417 250" fill="none" xmlns="http://www.w3.org/2000/svg">
<g clip-path="url(#clip0_32_108)">
<path d="M208.385 0C152.974 0 118.341 27.7062 104.489 83.1169C125.268 55.4107 149.51 45.0211 177.216 51.9481C193.023 55.8994 204.322 67.3685 216.828 80.0617C237.202 100.742 260.779 124.675 312.281 124.675C367.692 124.675 402.325 96.9692 416.177 41.5584C395.398 69.2646 371.156 79.6542 343.45 72.7273C327.643 68.776 316.344 57.3068 303.838 44.6136C283.465 23.9334 259.887 0 208.385 0ZM104.489 124.675C49.0782 124.675 14.445 152.381 0.592773 207.792C21.372 180.086 45.6139 169.696 73.32 176.623C89.1269 180.575 100.426 192.044 112.932 204.737C133.305 225.417 156.883 249.351 208.385 249.351C263.796 249.351 298.429 221.644 312.281 166.234C291.502 193.94 267.26 204.33 239.554 197.403C223.747 193.451 212.448 181.982 199.942 169.289C179.568 148.609 155.99 124.675 104.489 124.675Z" fill="url(#paint0_linear_32_108)"/>
</g>
<defs>
<linearGradient id="paint0_linear_32_108" x1="-1153.9" y1="7979.22" x2="34738.6" y2="28674.2" gradientUnits="userSpaceOnUse">
<stop stop-color="#2298BD"/>
<stop offset="1" stop-color="#0ED7B5"/>
</linearGradient>
<clipPath id="clip0_32_108">
<rect width="415.584" height="250" fill="white" transform="translate(0.592773)"/>
</clipPath>
</defs>
</svg>
