<svg width="251" height="250" viewBox="0 0 251 250" fill="none" xmlns="http://www.w3.org/2000/svg">
<path d="M44.4546 91.7969H239.123V235.684H44.4546V91.7969Z" fill="white"/>
<path d="M3.10693 124.824V246.895H247.248V2.75391H3.10693V124.824ZM199.845 115.059C205.693 116.416 211.007 119.474 215.119 123.848C217.382 126.204 219.35 128.828 220.978 131.66C220.978 131.973 210.431 139.102 204.005 143.086C203.771 143.242 202.834 142.227 201.798 140.684C200.625 138.659 198.959 136.966 196.954 135.76C194.949 134.554 192.671 133.876 190.333 133.789C182.931 133.281 178.166 137.168 178.205 143.555C178.143 145.145 178.507 146.722 179.259 148.125C180.88 151.504 183.908 153.516 193.4 157.617C210.88 165.137 218.361 170.098 223.009 177.148C228.205 184.961 229.357 197.578 225.841 206.914C221.935 217.07 212.365 223.965 198.83 226.25C192.648 226.958 186.402 226.892 180.236 226.055C170.786 224.497 162.081 219.96 155.392 213.105C153.146 210.625 148.771 204.16 149.044 203.691C149.757 203.162 150.508 202.686 151.291 202.266L160.333 197.266L167.345 193.203L168.81 195.371C171.282 198.907 174.428 201.921 178.068 204.238C185.88 208.34 196.544 207.773 201.818 203.027C203.588 201.288 204.693 198.983 204.939 196.514C205.185 194.044 204.558 191.566 203.166 189.512C201.212 186.797 197.306 184.512 186.388 179.746C173.791 174.316 168.361 170.957 163.4 165.605C160.303 162.074 158.016 157.908 156.701 153.398C155.719 148.247 155.574 142.971 156.271 137.773C158.869 125.605 167.99 117.109 181.31 114.59C187.479 113.827 193.727 113.998 199.845 115.098V115.059ZM142.541 125.293V135.293H110.841V225.586H88.3608V135.273H56.5835V125.508C56.4845 122.14 56.5627 118.77 56.8179 115.41C56.9741 115.234 76.3491 115.234 99.7866 115.234H142.423L142.541 125.293Z" fill="#007ACC"/>
</svg>
