<svg width="106" height="35" viewBox="0 0 106 35" fill="none" xmlns="http://www.w3.org/2000/svg">
<path d="M13.488 34V21.52L14.304 23.728L0.048 0.399998H3.84L16.368 20.896H14.352L26.88 0.399998H30.432L16.176 23.728L16.992 21.52V34H13.488ZM42.6334 34.24C40.2014 34.24 38.0094 33.696 36.0574 32.608C34.1374 31.488 32.6174 29.968 31.4974 28.048C30.3774 26.096 29.8174 23.872 29.8174 21.376C29.8174 18.848 30.3774 16.624 31.4974 14.704C32.6174 12.784 34.1374 11.28 36.0574 10.192C37.9774 9.104 40.1694 8.56 42.6334 8.56C45.1294 8.56 47.3374 9.104 49.2574 10.192C51.2094 11.28 52.7294 12.784 53.8174 14.704C54.9374 16.624 55.4974 18.848 55.4974 21.376C55.4974 23.872 54.9374 26.096 53.8174 28.048C52.7294 29.968 51.2094 31.488 49.2574 32.608C47.3054 33.696 45.0974 34.24 42.6334 34.24ZM42.6334 31.216C44.4574 31.216 46.0734 30.816 47.4814 30.016C48.8894 29.184 49.9934 28.032 50.7934 26.56C51.6254 25.056 52.0414 23.328 52.0414 21.376C52.0414 19.392 51.6254 17.664 50.7934 16.192C49.9934 14.72 48.8894 13.584 47.4814 12.784C46.0734 11.952 44.4734 11.536 42.6814 11.536C40.8894 11.536 39.2894 11.952 37.8814 12.784C36.4734 13.584 35.3534 14.72 34.5214 16.192C33.6894 17.664 33.2734 19.392 33.2734 21.376C33.2734 23.328 33.6894 25.056 34.5214 26.56C35.3534 28.032 36.4734 29.184 37.8814 30.016C39.2894 30.816 40.8734 31.216 42.6334 31.216ZM66.888 34L57.384 8.8H60.648L69.288 32.176H67.8L76.68 8.8H79.608L88.392 32.176H86.904L95.688 8.8H98.808L89.256 34H86.04L77.592 12.016H78.6L70.104 34H66.888ZM102.635 34.24C101.931 34.24 101.323 33.984 100.811 33.472C100.331 32.96 100.091 32.336 100.091 31.6C100.091 30.832 100.331 30.208 100.811 29.728C101.323 29.248 101.931 29.008 102.635 29.008C103.339 29.008 103.931 29.248 104.411 29.728C104.923 30.208 105.179 30.832 105.179 31.6C105.179 32.336 104.923 32.96 104.411 33.472C103.931 33.984 103.339 34.24 102.635 34.24Z" fill="black"/>
</svg>
